<svg xmlns="http://www.w3.org/2000/svg" width="1149.962" height="1370.519" viewBox="0 0 1078.0897 1284.8613"><defs><filter height="1.998" y="-.499" width="1.966" x="-.483" id="a" color-interpolation-filters="sRGB"><feGaussianBlur stdDeviation="90.605"/></filter></defs><ellipse transform="matrix(.85067 0 0 1.313 325.568 -195.73)" ry="217.875" rx="225.137" cy="752.394" cx="262.902" opacity=".758" fill="#ffeec0" filter="url(#a)"/><g transform="translate(278.16 -7.092)"><ellipse transform="matrix(.85067 0 0 1.313 325.568 -195.73)" ry="121.875" rx="225.137" cy="623.394" cx="-75" opacity=".758" filter="url(#a)"><animate xmlns="http://www.w3.org/2000/svg" attributeName="height" begin="0s" dur="2s" values="80;55;33;5;75;23;73;33;12;14;60;80" calcMode="linear" repeatCount="indefinite"/></ellipse><path d="M203.816 692.217c-28.909-.423-86.424-2.53-113.672-4.166-45.734-2.746-51.362-3.224-70.057-5.956-12.121-1.771-12.516-2.365-12.516-18.852v-13.202H19.18l.656-4.558c3.772-26.227 10.98-55.155 17.406-69.846 2.556-5.843 4.646-10.992 4.646-11.442 0-2.121 15.863-28.085 22.173-36.29 9.729-12.655 41.54-43.939 47.9-47.107 2.746-1.368 4.994-2.882 4.994-3.365 0-1.22 11.108-8.06 30.042-18.496 17.786-9.803 17.835-9.864 16.977-20.658-.385-4.843-.356-4.891 4.043-6.571 2.437-.93 6.641-3.942 9.343-6.692 6.098-6.208 8.227-13.4 8.227-27.8V387.2l3.485-1.54c6.685-2.953 9.57-6.248 10.175-11.62l.56-4.961-7.915.006c-4.352.003-11.895.316-16.76.695l-8.848.688v19.284l-5.548-.657c-3.051-.361-5.925-1.035-6.387-1.497-.462-.461-1.172-4.817-1.577-9.68l-.737-8.84h-7.96l-.625 7.452c-.97 11.578-1.255 11.85-12.405 11.85-8.421 0-9.657-.257-11.587-2.412-3.512-3.921-5.78-14.99-5.989-29.222-.161-11.022.133-13.576 2.052-17.798 2.107-4.637 2.545-4.972 7.349-5.63 2.81-.386 7.153-.7 9.652-.7 4.403 0 4.61.158 6.704 5.093 1.188 2.802 2.492 6.662 2.898 8.58.646 3.048 1.164 3.482 4.138 3.468 1.87-.009 3.917-.371 4.55-.804.814-.56.683-14.817-.452-49.045-2.26-68.166-2.069-69.28 14.294-83.542 22.83-19.898 38.821-39.718 42.913-53.186.985-3.244 2.45-7.587 3.253-9.651 2.664-6.842 5.844-30.615 5.857-43.777l.009-8.925-2.826 2.222c-1.554 1.223-4.393 2.223-6.309 2.223-4.408 0-4.772-1.244-4.791-16.354l-.015-11.528 4.558.016c5.29.02 6.803.775 7.482 3.737 1.048 4.574 2.973-3.848 2.973-13.006v-9.113l3.38.336c5.37.534 7.602 4.557 8.193 14.766l.5 8.626h7.23V65.762l3.897-1.286 3.897-1.286-.68-15.687c-1.152-26.575-1.069-37.71.293-39.072 1.265-1.265 27.162-1.9 28.38-.696.324.32.88 12.385 1.235 26.81.683 27.759 1.016 31.528 2.697 30.49.578-.358 2.011-.345 3.186.028 1.896.602 2.135 1.632 2.135 9.205v8.527l2.949-.646c1.622-.356 3.552-.832 4.29-1.06.955-.294 1.34-3.5 1.34-11.17V59.162h3.18c4.295 0 5.789 2.955 6.462 12.784.343 4.998 1.044 8.123 1.886 8.4.737.243 1.34-.263 1.34-1.125 0-2.742 2.946-4.263 6.84-3.533 4.352.817 4.721 1.806 5.649 15.153.794 11.425-.25 13.36-7.203 13.36-3.498 0-4.213-.364-4.213-2.144 0-1.477-.715-2.145-2.297-2.145-2.264 0-2.286.187-1.532 13.136 2.242 38.496 13.544 64.022 37.072 83.733 27.545 23.075 25.951 21.404 29.18 30.59 3.854 10.967 4.339 17.467 5.008 67.177l.665 49.33 4.948.32 4.949.321.742-5.595c.408-3.077 1.414-7.202 2.235-9.168l1.493-3.573h8.66c10.287 0 9.793-.664 12.517 16.828 1.435 9.216 1.561 13.346.677 22.181-.598 5.971-1.62 12.184-2.274 13.806-1.135 2.82-1.511 2.949-8.65 2.949-12.38 0-13.56-1.067-14.584-13.182-.16-1.892-.344-3.802-.408-4.245-.203-1.387-9.448-.874-10.665.593-.638.767-1.3 5.714-1.472 10.991l-.313 9.596-3.555.341c-5.634.54-6.633-1.068-6.633-10.686v-8.474l-17.962.295-17.962.294-.329 2.838c-.618 5.337 2.413 10.228 8.136 13.128 5.128 2.598 5.304 2.846 5.968 8.369.376 3.13.687 8.635.692 12.234.016 10.704 5.38 19.254 15.752 25.108l5.705 3.22v16.108l11.525 5.395c40.325 18.878 81.157 54.976 103.36 91.376 6.6 10.82 13.485 25.135 17.91 37.235 3.274 8.954 10.03 35.554 11.44 45.04.394 2.654 1.4 7.205 2.235 10.114.835 2.908 1.518 7.2 1.518 9.536v4.247l6.422-.67 6.421-.672 2.158 4.229c1.447 2.838 2.157 6.333 2.157 10.623 0 5.676-.362 6.757-3.217 9.612-1.77 1.77-3.217 3.913-3.217 4.762 0 1.836-2.266 2.196-27.882 4.427-52.504 4.574-99.197 6.805-169.971 8.123-53.285.992-70.778 1.046-117.425.365zm-9.383-347.407c4.935-.83 5.065-1.954.536-4.638-5.62-3.33-6.164-4.16-6.213-9.473-.064-6.886-2.24-12.45-6.16-15.748-5.028-4.231-7.734-10.807-7.734-18.794 0-8.484 2.71-14.509 9.04-20.095 2.554-2.255 5.14-5.769 5.862-7.969 1.608-4.893 2.269-5.417 10.643-8.438 6.832-2.466 18.496-10.384 24.043-16.322 1.65-1.767 4.526-5.762 6.39-8.879 3.413-5.705 5.555-6.929 12.127-6.929 1.351 0 2.7-.83 3.052-1.877.346-1.032 1.07-2.6 1.61-3.485.538-.885 1.57-2.882 2.293-4.44.723-1.556 2.468-3.448 3.878-4.202 2.477-1.326 2.563-1.789 2.563-13.884 0-31.821-1.472-74.204-2.588-74.541-.641-.194-2.975-.653-5.187-1.02-3.69-.614-4.022-.957-4.022-4.175 0-2.95-.594-3.79-3.753-5.296-3.722-1.775-3.753-1.847-3.753-8.777V98.84h-8.58l-.002 9.92c-.01 28.24-8.251 59.11-19.828 74.261-6.747 8.832-22.884 25.028-33.744 33.87-5.16 4.203-9.085 8.342-10.08 10.634-2.244 5.162-2.784 22.076-1.695 53.083l1.614 46.002.71 20.265 12.479-.694c6.862-.382 14.287-.999 16.499-1.371zm166.78-56.428c-.531-69.255.446-65.598-22.68-84.852-12.734-10.6-24.898-23.242-29.128-30.272-11.103-18.45-17.203-39.15-18.386-62.392-.368-7.247-1.07-13.423-1.56-13.725-.489-.302-2.586-.231-4.66.158l-3.772.707v7.808c0 7.28-.168 7.85-2.497 8.433-2.427.61-5.01 4.567-5.01 7.68 0 1.495-2.017 2.271-7.506 2.886l-2.681.3.233 20.912c.128 11.5.541 31.111.919 43.579.686 22.661.687 22.668 3.287 23.853 1.431.652 3.529 3.24 4.662 5.75 2.912 6.45 4.673 8.318 7.837 8.318 4.652 0 8.076 1.89 9.934 5.483 2.83 5.473 6.513 9.568 14.32 15.922 6.45 5.25 10.264 7.417 17.71 10.062 5.708 2.027 6.8 2.884 8.842 6.929 1.282 2.539 4.975 7.157 8.208 10.264 6.331 6.083 8.217 10.421 8.217 18.9 0 7.704-1.777 12.129-7.5 18.669-4.88 5.575-5.367 6.616-5.48 11.688-.068 3.062-.236 6.05-.373 6.64-.137.59-.322 1.561-.412 2.16-.09.597-2.094 2.28-4.453 3.738-2.36 1.458-4.29 3.02-4.29 3.47 0 .45 8.243.82 18.317.82h18.316l-.413-53.888z" fill="#fff"/></g></svg>