<svg xmlns="http://www.w3.org/2000/svg" width="1149.962" height="1370.519" viewBox="0 0 1078.0897 1284.8613"><defs><filter height="1.998" y="-.499" width="1.966" x="-.483" id="a" color-interpolation-filters="sRGB"><feGaussianBlur stdDeviation="90.605"/></filter></defs><ellipse transform="matrix(.85067 0 0 1.313 325.568 -195.73)" ry="217.875" rx="225.137" cy="752.394" cx="262.902" opacity=".758" fill="#ffeec0" filter="url(#a)"/><g transform="translate(278.16 -7.092)"><ellipse transform="matrix(.85067 0 0 1.313 325.568 -195.73)" ry="121.875" rx="225.137" cy="623.394" cx="-75" opacity=".758" filter="url(#a)"><animate xmlns="http://www.w3.org/2000/svg" attributeName="height" begin="0s" dur="2s" values="80;55;33;5;75;23;73;33;12;14;60;80" calcMode="linear" repeatCount="indefinite"/></ellipse><path d="M203.816 692.217c-28.91-.423-86.424-2.53-113.672-4.166-45.734-2.745-51.362-3.223-70.057-5.955-12.12-1.77-12.516-2.365-12.516-18.852V650.04H19.18l.655-4.557c3.772-26.227 10.98-55.155 17.406-69.846 2.557-5.843 4.647-10.992 4.647-11.442 0-2.12 15.863-28.085 22.173-36.29 9.73-12.655 41.54-43.94 47.9-47.107 2.746-1.368 4.994-2.882 4.994-3.365 0-1.22 11.108-8.06 30.042-18.496 17.786-9.803 17.835-9.864 16.977-20.658-.385-4.844-.356-4.892 4.043-6.572 2.437-.93 6.64-3.942 9.343-6.692 6.097-6.208 8.226-13.4 8.226-27.8V387.2l3.485-1.54c6.686-2.953 9.57-6.248 10.176-11.62l.56-4.96-7.915.005c-4.35.003-11.894.316-16.76.695l-8.847.688v19.284l-5.548-.657c-3.05-.36-5.925-1.035-6.387-1.497-.462-.46-1.172-4.817-1.577-9.68l-.736-8.84h-7.96l-.625 7.452c-.97 11.578-1.256 11.85-12.406 11.85-8.42 0-9.657-.257-11.587-2.412-3.512-3.92-5.78-14.99-5.99-29.222-.16-11.022.134-13.576 2.053-17.798 2.107-4.637 2.545-4.972 7.35-5.63 2.808-.386 7.152-.7 9.65-.7 4.404 0 4.612.158 6.705 5.093 1.188 2.803 2.492 6.663 2.898 8.58.646 3.05 1.164 3.483 4.138 3.47 1.87-.01 3.918-.372 4.55-.805.815-.56.684-14.817-.45-49.045-2.26-68.166-2.07-69.28 14.293-83.542 22.83-19.898 38.82-39.718 42.913-53.186.985-3.244 2.45-7.587 3.253-9.65 2.663-6.843 5.843-30.616 5.856-43.778l.01-8.925-2.827 2.22c-1.555 1.224-4.394 2.224-6.31 2.224-4.408 0-4.772-1.244-4.79-16.354l-.016-11.528 4.558.016c5.29.02 6.803.775 7.482 3.737 1.048 4.574 2.973-3.848 2.973-13.006v-9.114l3.38.336c5.37.534 7.602 4.557 8.193 14.766l.5 8.626h7.23V65.762l3.897-1.286 3.897-1.286-.68-15.687c-1.152-26.575-1.07-37.71.293-39.072 1.265-1.264 27.162-1.9 28.38-.695.324.32.88 12.385 1.235 26.81.683 27.76 1.016 31.528 2.697 30.49.577-.358 2.01-.345 3.185.028 1.896.602 2.135 1.632 2.135 9.205v8.527l2.95-.646c1.62-.357 3.55-.833 4.288-1.06.956-.295 1.34-3.5 1.34-11.17V59.16h3.18c4.296 0 5.79 2.955 6.463 12.784.344 4.998 1.045 8.123 1.887 8.4.737.243 1.34-.263 1.34-1.125 0-2.74 2.946-4.262 6.84-3.532 4.352.817 4.72 1.806 5.65 15.153.793 11.426-.25 13.36-7.204 13.36-3.498 0-4.213-.363-4.213-2.143 0-1.477-.715-2.145-2.297-2.145-2.264 0-2.286.187-1.532 13.136 2.243 38.496 13.545 64.022 37.073 83.733 27.545 23.076 25.95 21.405 29.18 30.59 3.854 10.968 4.34 17.468 5.008 67.178l.666 49.33 4.948.32 4.95.32.74-5.594c.41-3.077 1.415-7.202 2.236-9.168l1.493-3.573h8.66c10.287 0 9.793-.664 12.517 16.828 1.435 9.217 1.56 13.347.677 22.182-.598 5.97-1.62 12.184-2.274 13.806-1.135 2.82-1.51 2.95-8.65 2.95-12.38 0-13.56-1.068-14.584-13.183-.16-1.892-.345-3.802-.41-4.245-.202-1.387-9.447-.874-10.664.593-.638.767-1.3 5.714-1.472 10.99l-.313 9.597-3.554.34c-5.634.542-6.633-1.067-6.633-10.685v-8.474l-17.962.296-17.96.294-.33 2.838c-.618 5.337 2.413 10.228 8.136 13.128 5.128 2.598 5.304 2.846 5.968 8.37.376 3.13.687 8.634.692 12.233.016 10.703 5.38 19.253 15.752 25.107l5.705 3.22v16.109l11.525 5.395c40.325 18.878 81.157 54.976 103.36 91.376 6.6 10.82 13.485 25.135 17.91 37.235 3.274 8.955 10.03 35.555 11.44 45.04.394 2.655 1.4 7.206 2.235 10.115.835 2.908 1.518 7.2 1.518 9.536v4.248l6.423-.67 6.42-.672 2.16 4.23c1.446 2.837 2.156 6.332 2.156 10.622 0 5.676-.363 6.757-3.218 9.612-1.77 1.77-3.217 3.913-3.217 4.762 0 1.836-2.266 2.196-27.882 4.427-52.504 4.573-99.197 6.804-169.97 8.122-53.286.992-70.78 1.046-117.426.365zm-9.383-347.407c4.935-.83 5.065-1.954.536-4.638-5.62-3.33-6.165-4.16-6.214-9.473-.064-6.887-2.24-12.452-6.16-15.75-5.028-4.23-7.734-10.806-7.734-18.793 0-8.484 2.71-14.51 9.04-20.095 2.554-2.255 5.14-5.77 5.862-7.97 1.608-4.892 2.27-5.416 10.643-8.437 6.832-2.466 18.496-10.384 24.043-16.322 1.65-1.767 4.526-5.762 6.39-8.88 3.413-5.704 5.555-6.928 12.127-6.928 1.35 0 2.7-.83 3.052-1.877.345-1.032 1.07-2.6 1.608-3.485.54-.885 1.57-2.882 2.294-4.44.723-1.556 2.468-3.448 3.878-4.202 2.477-1.325 2.563-1.788 2.563-13.883 0-31.82-1.472-74.204-2.588-74.54-.64-.195-2.975-.654-5.187-1.02-3.69-.615-4.022-.958-4.022-4.176 0-2.95-.594-3.788-3.753-5.295-3.722-1.775-3.753-1.847-3.753-8.777V98.84h-8.58l-.002 9.92c-.01 28.24-8.25 59.11-19.828 74.26-6.747 8.833-22.884 25.03-33.744 33.872-5.16 4.202-9.085 8.34-10.08 10.633-2.244 5.162-2.784 22.076-1.695 53.083.498 14.155 1.224 34.856 1.615 46.002l.71 20.265 12.48-.694c6.86-.38 14.286-.998 16.498-1.37zm166.78-56.428c-.53-69.255.446-65.598-22.68-84.852-12.734-10.6-24.898-23.242-29.128-30.272-11.103-18.45-17.203-39.15-18.386-62.392-.37-7.247-1.07-13.423-1.56-13.725-.49-.3-2.587-.23-4.66.16l-3.773.706v7.808c0 7.28-.168 7.85-2.497 8.433-2.427.61-5.01 4.567-5.01 7.68 0 1.495-2.017 2.27-7.506 2.886l-2.68.3.232 20.912c.128 11.5.54 31.11.92 43.58.685 22.66.686 22.667 3.286 23.852 1.43.652 3.53 3.24 4.662 5.75 2.912 6.45 4.673 8.318 7.837 8.318 4.653 0 8.077 1.89 9.935 5.483 2.83 5.473 6.513 9.568 14.32 15.922 6.45 5.25 10.264 7.417 17.71 10.062 5.708 2.027 6.8 2.884 8.842 6.93 1.282 2.538 4.975 7.156 8.208 10.263 6.33 6.083 8.217 10.42 8.217 18.9 0 7.704-1.777 12.13-7.5 18.67-4.88 5.574-5.367 6.615-5.48 11.687-.068 3.062-.236 6.05-.373 6.64-.138.59-.323 1.56-.413 2.16-.09.597-2.094 2.28-4.453 3.738-2.36 1.458-4.29 3.02-4.29 3.47 0 .45 8.243.82 18.317.82h18.317l-.413-53.888z" fill="#fff"/></g></svg>