<?xml version="1.0" encoding="UTF-8" standalone="no"?>
<svg
   xmlns:dc="http://purl.org/dc/elements/1.1/"
   xmlns:cc="http://creativecommons.org/ns#"
   xmlns:rdf="http://www.w3.org/1999/02/22-rdf-syntax-ns#"
   xmlns:svg="http://www.w3.org/2000/svg"
   xmlns="http://www.w3.org/2000/svg"
   version="1.1"
   id="svg2"
   viewBox="0 0 336.26682 344.00421"
   height="97.085632mm"
   width="94.90197mm">
  <defs
     id="defs4" />
  <metadata
     id="metadata7">
    <rdf:RDF>
      <cc:Work
         rdf:about="">
        <dc:format>image/svg+xml</dc:format>
        <dc:type
           rdf:resource="http://purl.org/dc/dcmitype/StillImage" />
        <dc:title></dc:title>
      </cc:Work>
    </rdf:RDF>
  </metadata>
  <g
     transform="translate(-4.553466,-3.2193131)"
     id="layer1">
    <path
       id="path4147"
       d="m 154.83802,335.46935 c -0.34233,-6.4625 -0.89197,-16.56927 -1.22142,-22.4595 l -0.599,-10.7095 25.3346,8.4595 c 25.14665,8.39674 29.8787,9.54948 29.8787,7.27853 0,-0.64953 -1.00252,-6.325 -2.22783,-12.61216 l -2.22782,-11.43119 -8.73161,-5.10369 -8.73161,-5.10368 -5.55387,-15.53415 c -3.05463,-8.54379 -5.54788,-15.83591 -5.54057,-16.2047 0.007,-0.3688 1.34345,-0.9627 2.96917,-1.31976 2.7624,-0.60672 5.29778,1.41223 38.73887,30.84833 19.68066,17.32366 35.93379,31.3468 36.11805,31.16253 0.18427,-0.18426 -7.1792,-17.27081 -16.36324,-37.9701 -9.18404,-20.69929 -16.5298,-37.76877 -16.3239,-37.93219 0.2059,-0.16342 2.93614,-1.66216 6.0672,-3.33055 l 5.69284,-3.03342 3.42383,5.15666 3.42382,5.15665 21.88335,6.68957 21.88333,6.68956 13,-1.04507 c 13.90004,-1.11741 26.30385,-3.04101 30.70896,-4.76238 2.21701,-0.86633 3.07366,-2.2917 4.7172,-7.84893 2.69125,-9.09977 5.85215,-26.19319 6.68062,-36.12728 0.8291,-9.94159 0.3046,-10.90178 -9.74932,-17.8478 -7.64748,-5.28347 -30.84983,-18.57848 -36.65898,-21.0057 -3.45681,-1.44435 -22.94966,-5.60457 -31.69848,-6.76518 -2.75,-0.36481 -5.41442,-0.74904 -5.92094,-0.85384 -0.50652,-0.1048 -2.82895,6.55945 -5.16095,14.80945 l -4.24001,15 -0.0728,-12.02552 c -0.0858,-14.1805 -2.08048,-26.7438 -6.10269,-38.43702 -1.60101,-4.65439 -2.81743,-8.55603 -2.70316,-8.6703 0.11427,-0.11427 2.51969,2.61691 5.34539,6.06928 5.73917,7.01201 5.06706,6.78379 23.85511,8.10032 l 9,0.63066 32.5,-9.07751 c 17.875,-4.99263 33.31316,-9.42458 34.30703,-9.84877 1.56116,-0.66631 -2.63523,-7.70831 -30.84196,-51.756203 -17.95689,-28.04172 -35.34632,-55.11606 -38.64313,-60.16521 l -5.9942,-9.1802698 -7.96564,3.35948 c -8.67379,3.6581398 -13.03861,6.9282998 -39.08324,29.2815198 -13.79393,11.83887 -16.9003,14.99618 -17.74442,18.03538 -0.56278,2.02629 -1.02576,9.80192 -1.02882,17.27917 -0.005,12.34287 0.17919,13.76223 2.00055,15.41054 3.08656,2.79329 1.74388,2.80619 -3.11286,0.0299 -2.4163,-1.38124 -5.69171,-2.51677 -7.2787,-2.52339 l -2.88542,-0.0121 0.71487,-12.54818 c 2.14552,-37.66014 2.3292,-68.4518198 0.40833,-68.4518198 -1.40545,0 -10.61808,19.6642798 -25.71438,54.8871098 l -13.02374,30.38711 -8.80712,4.22048 c -4.84391,2.32126 -11.26868,5.8958 -14.27727,7.943423 -4.80905,3.273 -5.965,3.64873 -9.5647,3.10892 -5.07947,-0.76171 -6.89002,0.92446 -8.44549,7.86528 -0.99375,4.4343 -0.89997,5.08617 1.02677,7.1371 l 2.12041,2.25707 -12.954388,4.2754 -12.9544,4.2754 -5.31963,-2.28844 c -4.06743,-1.74976 -6.36613,-2.14501 -9.76533,-1.6791 -8.31545,1.13976 -39.70557,11.97415 -46.88881,16.18381 -4.27146,2.50324 -8.27288,7.48307 -8.28053,10.30524 -0.002,0.75834 -1.52134,3.0586 -3.37618,5.11169 -1.93257,2.13912 -4.3875497,6.67388 -5.7499997,10.6212 -3.38036,9.79364 -3.41134,30.11078 -0.0639,41.88831 4.6590797,16.39228 14.4211197,32.15519 23.7341697,38.3239 4.07062,2.69626 5.71336,3.17536 10.87359,3.17127 9.693,-0.008 19.35482,4.01553 26.54906,11.0551 4.72651,4.62488 8.96335,7.2887 21.70133,13.64421 8.70549,4.34354 20.890668,9.86514 27.078168,12.27023 l 11.25,4.37289 0.23553,18.58119 c 0.12954,10.21966 0.10989,21.5062 -0.0437,25.0812 -0.49617,11.55178 -1.19553,11 13.94195,11 l 13.09572,0 -0.62242,-11.75 z m -26.84246,-69.25027 -30.735328,-11.26709 3.215398,-1.61632 c 1.76847,-0.88898 4.26524,-3.18745 5.54837,-5.10772 2.20421,-3.29873 3.11065,-3.69622 16.42449,-7.20247 15.80663,-4.16274 17.96135,-3.99386 17.53151,1.37406 -0.22994,2.87157 0.30506,3.44923 6.95724,7.51188 l 7.20635,4.40109 4.84947,-2.08619 c 8.35543,-3.5944 9.08995,-2.78683 12.34982,13.57801 3.8451,19.30273 4.31834,17.88912 -4.86198,14.52327 -4.2625,-1.56279 -21.5809,-7.91163 -38.48534,-14.10852 z M 83.974312,249.75662 c -1.92546,-0.80451 -3.76464,-2.1502 -4.08706,-2.99041 -0.40471,-1.05465 0.71887,-0.71489 3.62872,1.09729 6.32971,3.94198 6.43862,4.39183 0.45834,1.89312 z m -27.0762,-22.28726 c 0.31286,-1.28081 0.0857,-2.25 -0.52742,-2.25 -0.59236,0 -0.82941,0.7875 -0.52677,1.75 1.13478,3.60901 -2.73996,-2.17528 -6.73027,-10.0471 -8.39342,-16.55798 -13.61424,-38.03352 -12.50712,-51.44736 0.83607,-10.12987 3.42472,-20.80622 5.69531,-23.48913 1.82463,-2.15598 1.81949,-2.03693 -0.10548,2.44348 -2.55401,5.94451 -3.97217,20.76235 -2.90113,30.31282 0.98448,8.77856 4.54809,19.75954 10.50203,32.36118 4.91049,10.39315 4.95831,10.53608 3.18364,9.5148 -0.72624,-0.41793 -0.90083,-0.33791 -0.41667,0.19098 0.45834,0.50068 1.35637,0.91033 1.99564,0.91033 1.32801,0 3.10203,4.91967 4.14688,11.5 0.6642,4.18302 0.6063,4.35912 -0.82186,2.5 -0.87123,-1.13413 -1.29844,-2.9741 -0.98678,-4.25 z m -1.33388,-2.91667 c 0.97315,-0.97314 0.81477,-4.12377 -0.24007,-4.77569 -0.49871,-0.30822 -0.65282,0.41059 -0.34248,1.59735 0.3838,1.46765 0.19773,1.93122 -0.5818,1.44944 -0.74301,-0.4592 -0.93663,-0.16251 -0.55054,0.84363 0.67336,1.75474 0.78684,1.81332 1.71489,0.88527 z m -3.41362,-5.33333 c -1.45781,-3.06103 -1.91971,-3.62834 -1.91971,-2.3578 0,0.53655 0.69982,1.84905 1.55517,2.91667 1.46637,1.83031 1.48719,1.7984 0.36454,-0.55887 z m -6.58638,-15.66667 c 0.36667,-0.36666 0.66667,-1.13166 0.66667,-1.7 0,-0.6266 -0.46577,-0.56756 -1.18333,0.15 -0.65084,0.65084 -0.95084,1.41584 -0.66667,1.7 0.28417,0.28417 0.81667,0.21667 1.18333,-0.15 z m -0.83333,-3.33333 c 0.33992,-0.55 0.14148,-1 -0.44098,-1 -0.58246,0 -1.05902,0.45 -1.05902,1 0,0.55 0.19844,1 0.44098,1 0.24254,0 0.7191,-0.45 1.05902,-1 z m -0.50081,-2.25 c -4.5e-4,-0.1375 -0.92101,-2.5 -2.04569,-5.25 -1.12468,-2.75 -1.78849,-3.875 -1.47512,-2.5 0.31337,1.375 0.84018,3.7375 1.17069,5.25 0.33051,1.5125 0.99468,2.75 1.47593,2.75 0.48125,0 0.87463,-0.1125 0.87419,-0.25 z m -4.07814,-12.33333 c -0.048,-1.16495 -0.28494,-1.4019 -0.60416,-0.60417 -0.28887,0.72187 -0.25335,1.58437 0.0789,1.91667 0.33229,0.33229 0.56864,-0.25834 0.52522,-1.3125 z m -1,-5 c -0.048,-1.16495 -0.28494,-1.4019 -0.60416,-0.60417 -0.28887,0.72187 -0.25335,1.58437 0.0789,1.91667 0.33229,0.33229 0.56864,-0.25834 0.52522,-1.3125 z m -1,-7 c -0.048,-1.16495 -0.28494,-1.4019 -0.60416,-0.60417 -0.28887,0.72187 -0.25335,1.58437 0.0789,1.91667 0.33229,0.33229 0.56864,-0.25834 0.52522,-1.3125 z m 98.081908,51.83333 C 121.23391,208.74461 108.93927,182.83168 109.35099,168.8094 l 0.12009,-4.09004 0.96901,4.5 c 1.95836,9.09454 5.06753,18.68615 8.40756,25.93686 4.30895,9.35409 14.93171,25.32481 20.29745,30.51609 2.24719,2.17412 4.0858,4.31162 4.0858,4.75 0,1.94846 -2.21112,0.38329 -6.99704,-4.95295 z m 77.98599,-8.63861 c -12.16677,-8.05159 -26.26806,-36.53851 -31.99294,-64.63099 -5.73834,-28.15851 -2.30236,-52.836063 8.13473,-58.424423 3.24678,-1.73843 4.0928,-1.80838 8,-0.66142 5.88792,1.7284 15.97612,12.131393 21.80854,22.489063 19.59258,34.79399 24.80084,89.55993 9.72369,102.24652 -2.55879,2.15308 -3.79036,2.50289 -7.38523,2.0977 -2.37289,-0.26746 -6.10284,-1.66986 -8.28879,-3.11645 z M 150.2309,205.70404 c -7.97309,-10.11355 -13.27909,-22.72311 -16.58394,-39.41127 -2.31026,-11.66591 -1.4885,-30.01272 1.93931,-43.2973 2.65378,-10.28483 6.99077,-20.98856 9.27102,-22.88101 0.75146,-0.623653 0.27076,0.83232 -1.06824,3.23549 -3.57076,6.40868 -7.16011,19.88404 -8.52761,32.01491 -2.63412,23.3668 3.62255,49.72429 15.70886,66.17678 3.38456,4.60725 4.99854,8.74011 3.37406,8.63986 -0.3374,-0.0208 -2.18846,-2.03568 -4.11346,-4.47746 z m -41.884,-54.23468 c 0.12313,-6.10312 0.56471,-5.50505 1.10752,1.5 0.18113,2.3375 -0.0201,4.25 -0.44709,4.25 -0.42704,0 -0.72423,-2.5875 -0.66043,-5.75 z m 1.22172,-13.5 c 0.27741,-0.6875 0.50439,-0.125 0.50439,1.25 0,1.375 -0.22698,1.9375 -0.50439,1.25 -0.27741,-0.6875 -0.27741,-1.8125 0,-2.5 z m 1.23371,-7.17857 c 0.36782,-1.46551 0.86162,-2.47171 1.09733,-2.236 0.23572,0.23572 0.12763,1.62763 -0.24019,3.09314 -0.36782,1.46551 -0.86162,2.47171 -1.09733,2.236 -0.23572,-0.23572 -0.12763,-1.62763 0.24019,-3.09314 z"
       style="fill:#999" />
  </g>
</svg>
