<?xml version="1.0" encoding="UTF-8" standalone="no"?>
<svg
   xmlns:dc="http://purl.org/dc/elements/1.1/"
   xmlns:cc="http://creativecommons.org/ns#"
   xmlns:rdf="http://www.w3.org/1999/02/22-rdf-syntax-ns#"
   xmlns:svg="http://www.w3.org/2000/svg"
   xmlns="http://www.w3.org/2000/svg"
   version="1.1"
   id="svg2"
   viewBox="0 0 387.17961 514.80263"
   height="145.28874mm"
   width="109.27069mm">
  <defs
     id="defs4">
    <filter
       height="1.4487216"
       y="-0.22436078"
       width="1.4464086"
       x="-0.22320428"
       id="filter4653"
       style="color-interpolation-filters:sRGB">
      <feGaussianBlur
         id="feGaussianBlur4655"
         stdDeviation="25.774781" />
    </filter>
  </defs>
  <metadata
     id="metadata7">
    <rdf:RDF>
      <cc:Work
         rdf:about="">
        <dc:format>image/svg+xml</dc:format>
        <dc:type
           rdf:resource="http://purl.org/dc/dcmitype/StillImage" />
        <dc:title></dc:title>
      </cc:Work>
    </rdf:RDF>
  </metadata>
  <g
     transform="translate(57.875502,-308.07651)"
     id="layer1">
    <path
       id="path3437"
       d="M 128.38583,560.13963 C 114.80949,558.46 99.709443,546.80842 94.063543,533.65567 c -1.22476,-2.85321 -1.82901,-16.14687 -0.89001,-19.58042 1.15858,-4.23647 6.62265,-16.04786 7.864367,-17 0.35863,-0.275 2.96335,-4.5028 5.78826,-9.39511 7.13775,-12.36153 9.17746,-18.96544 9.76161,-31.60489 0.38258,-8.27823 0.90032,-11.08911 2.44681,-13.2841 1.7557,-2.49194 1.95587,-4.44873 1.90756,-18.64742 l -0.054,-15.86334 3.53363,-3.10257 c 1.9435,-1.70641 4.58725,-3.10257 5.87501,-3.10257 l 11.51985,-0.39269 c 0,0 6.24764,0.99707 9,3.22582 l 3.56918,2.89017 0.18116,16.64098 c 0.15453,14.19462 0.47041,17.26537 2.14875,20.88835 1.08218,2.33605 2.42588,8.07237 2.98601,12.74737 0.56013,4.675 1.26772,9.4 1.57242,10.5 0.3047,1.1 0.95362,3.61671 1.44204,5.5927 0.93844,3.79656 5.98188,13.44847 11.68978,22.37136 1.88314,2.94383 4.61944,7.9812 6.08066,11.19417 4.65118,10.22716 3.98435,23.55846 -1.54103,30.80837 -3.50927,4.60454 -14.54964,14.61824 -16.71665,15.16213 -1.28113,0.32154 -2.12126,0.92127 -1.86696,1.33274 0.71689,1.15994 -14.32391,5.24568 -20.47618,5.56222 -3.025,0.15565 -8.2,-0.051 -11.5,-0.45931 z m 15.93286,-4.8319 c 0.53717,-0.33199 2.32421,-0.75115 3.97118,-0.93145 1.64696,-0.1803 3.24232,-0.65929 3.54522,-1.06443 0.30291,-0.40513 1.00074,-0.74129 1.55074,-0.74702 2.71801,-0.0283 9.3676,-4.45752 15.1237,-10.07369 7.3482,-7.16954 10.80199,-14.00412 10.56966,-20.91589 -0.14521,-4.32014 -2.52291,-13.5 -3.49667,-13.5 -0.56651,0 -0.73393,-0.2961 -0.37203,-0.65799 0.36189,-0.3619 0.15679,-1.2619 -0.45578,-2 -0.61257,-0.73811 -0.81546,-1.34201 -0.45086,-1.34201 0.36461,0 -0.45621,-1.20693 -1.82404,-2.68207 -1.36783,-1.47514 -2.25948,-3.05014 -1.98145,-3.5 0.27803,-0.44986 0.0381,-0.81793 -0.53319,-0.81793 -0.57128,0 -1.95698,-1.8 -3.07934,-4 -1.12236,-2.2 -1.79613,-4 -1.49727,-4 0.62822,0 -2.58235,-5.22867 -3.71481,-6.04986 -1.46771,-1.06429 -4.98391,-12.49957 -5.13503,-16.69994 -0.0841,-2.33738 -0.41539,-4.24988 -0.73622,-4.25 -0.6316,-2.2e-4 -0.61739,0.0904 -1.25416,-8.0002 -0.23808,-3.025 -0.48454,-6.07364 -0.54769,-6.77475 -0.15128,-1.67952 -4.47617,-3.28825 -10.35425,-3.85148 l -4.73943,-0.45413 0.18149,19.0784 c 0.12471,13.11006 0.604,20.23957 1.5321,22.79018 0.74284,2.04148 1.5799,4.80525 1.86013,6.14171 0.28023,1.33646 0.81087,2.91146 1.1792,3.5 0.36834,0.58854 0.75354,1.52007 0.85602,2.07007 0.10247,0.55 0.98778,2.8 1.96736,5 1.91837,4.30841 2.08707,4.81296 2.27756,6.81144 0.0687,0.72129 1.03438,2.28755 2.14585,3.48057 1.11147,1.19302 2.02418,2.29038 2.02825,2.43856 0.0479,1.74864 1.39484,4.76943 2.12655,4.76943 0.51831,0 0.68669,0.41372 0.37418,0.91938 -0.31252,0.50566 0.14307,1.63066 1.01241,2.5 0.86934,0.86934 1.29692,1.58062 0.95017,1.58062 -0.34674,0 -0.2868,0.55602 0.1332,1.2356 1.04712,1.69428 0.41937,7.85912 -0.99093,9.73144 -0.63507,0.84313 -2.1652,1.56848 -3.40027,1.61189 -1.23508,0.0434 -2.08258,-0.0841 -1.88334,-0.28334 0.19925,-0.19924 -1.04024,-1.83421 -2.7544,-3.63326 -1.71417,-1.79905 -4.61107,-4.92911 -6.43756,-6.95569 -3.15846,-3.50446 -3.45193,-3.6169 -6,-2.29885 -1.47351,0.76221 -5.28292,4.11596 -8.46535,7.45278 l -5.78624,6.06695 -2.05622,-2.05622 c -1.16202,-1.16202 -1.81839,-2.77703 -1.50934,-3.71375 2.42746,-7.35763 3.28889,-9.15755 4.38273,-9.15755 1.5592,0 1.56561,-0.13094 -0.24469,5 -0.825,2.3383 -1.5,4.63075 -1.5,5.09434 0,1.70941 2.98054,-0.39488 8.7951,-6.20943 7.03376,-7.03377 9.36706,-7.23292 14.48671,-1.23649 6.00783,7.03672 8.72484,9.51603 9.973,9.10048 1.86927,-0.62233 1.79567,-4.75243 -0.16481,-9.2489 -3.69051,-8.4644 -8.61196,-19.02196 -9.09,-19.5 -0.275,-0.275 -0.57614,-1.175 -0.66919,-2 -0.0931,-0.825 -1.36376,-4.65 -2.82379,-8.5 -1.46003,-3.85 -2.85022,-8.575 -3.08931,-10.5 -0.2391,-1.925 -0.72974,-4.85 -1.09033,-6.5 -0.36058,-1.65 -0.77089,-9.525 -0.9118,-17.5 -0.14091,-7.975 -0.29207,-15.06353 -0.33589,-15.75229 -0.0562,-0.88324 -1.52635,-1.12901 -4.98856,-0.83396 -5.77312,0.49199 -9.45196,2.20357 -8.73759,4.06518 0.27976,0.72905 0.26369,1.57051 -0.0357,1.86991 -0.47308,0.47309 -1.06227,7.11892 -1.63136,18.40116 -0.0902,1.7875 -0.48067,3.25 -0.86778,3.25 -0.38711,0 -0.53052,0.9 -0.31868,2 0.21184,1.1 0.0476,2 -0.36497,2 -0.75212,0 -3.36749,5.53402 -4.60785,9.75 -0.36407,1.2375 -1.03461,2.25 -1.49006,2.25 -0.45546,0 -1.68535,1.6875 -2.73308,3.75 -1.04774,2.0625 -3.37276,6.09527 -5.16672,8.96172 -1.79397,2.86644 -3.19755,5.47767 -3.11907,5.80272 0.0785,0.32505 -0.6008,1.72571 -1.50951,3.11256 -2.123997,3.24163 -2.629957,5.37842 -3.225767,13.623 -0.30314,4.19491 -0.10593,6.75 0.521,6.75 0.55483,0 0.80226,0.78976 0.54984,1.75502 -0.25242,0.96525 0.46471,2.74644 1.59362,3.95818 1.128917,1.21175 2.052567,2.64647 2.052567,3.18828 0,0.54181 0.83951,1.57313 1.86558,2.29182 1.02607,0.71868 2.0268,1.7567 2.22385,2.3067 0.69295,1.93421 3.27649,4.39189 4.08895,3.88976 0.45189,-0.27929 0.82162,-0.083 0.82162,0.43621 0,1.23201 4.56493,4.20508 7.25078,4.72233 1.15623,0.22267 2.3603,0.80199 2.67572,1.28739 1.32852,2.04441 20.85502,4.03541 23.50636,2.39679 z"
       style="fill:#131313" />
    <ellipse
       transform="matrix(0.96586803,0,0,1.1216638,4.6321965,-48.742133)"
       ry="137.85715"
       rx="138.57143"
       cy="577.36224"
       cx="135.71428"
       id="path3439"
       style="opacity:1;fill:#fffbe2;fill-opacity:1;filter:url(#filter4653)" />
    <rect
       y="308.07651"
       x="135"
       height="93.571426"
       width="3.9285715"
       id="rect4663"
       style="opacity:1;fill:#060606;fill-opacity:1" />
  </g>
</svg>
