<?xml version="1.0" encoding="utf-8"?>
<!-- Generator: Adobe Illustrator 15.1.0, SVG Export Plug-In . SVG Version: 6.00 Build 0)  -->
<svg version="1.2" baseProfile="tiny" id="Layer_2" xmlns="http://www.w3.org/2000/svg" xmlns:xlink="http://www.w3.org/1999/xlink"
	 x="0px" y="0px" width="237.354px" height="53.087px" viewBox="0 0 237.354 53.087" xml:space="preserve">
<g>
	<path fill="#9D9FA2" d="M67.845,19.901C63.392,29.849,58.688,40.07,54.79,50.16c-1.177,3.048-1.926,2.066-6.681,2.093
		c6.779-15.083,12.916-27.415,18.738-40.701h0.526h3.424h0.499l17.506,40.917c-5.718-0.178-7.533,0.536-8.525-1.877L78.51,46.29
		C74.959,37.492,71.409,28.691,67.845,19.901"/>
	<path fill="#9D9FA2" d="M155.155,49.432c-3.998,2.648-8.933,3.611-13.673,3.611c-12.438,0-21.416-8.449-21.416-21.311
		c0-5.928,2.069-11.525,6.591-15.484c4.433-3.885,10.479-5.538,16.283-5.538c4.47,0,8.834,0.881,12.919,2.708l0.657,0.297
		c-0.711,1.77-1.435,4.645-1.802,6.519c-2.459-3.316-7.188-5.928-11.997-5.857c-4.503,0.063-8.492,1.523-11.391,5.082
		c-2.804,3.442-3.995,8.132-3.995,12.504h-0.003c0,9.02,5.426,17.337,14.956,17.337c5.333,0,11.026-3.103,13.833-5.787
		C155.93,45.42,155.319,47.523,155.155,49.432"/>
	<path fill="#9D9FA2" d="M189.407,12.85c-5.967,5.62-11.949,11.206-17.804,16.942c6.312,6.976,12.685,13.9,18.652,21.176
		l0.172,0.211v0.543l0.075,0.771c-1.267,0.013-3.853,0.055-4.912,0.011c-2.513-0.106-3.121-0.7-5.232-3.346
		c-0.68-0.856-1.297-1.633-1.88-2.3l-12.487-14.252v19.799c-2.459-0.083-4.484-0.095-6.682,0.002V11.494
		c2.322,0.009,4.361,0.004,6.686,0.004v17.76c0.088-0.042,0.182-0.096,0.278-0.153c0.181-0.137,0.353-0.278,0.521-0.418
		c0.222-0.19,0.46-0.384,0.665-0.589c5.724-5.271,10.899-11.093,16.267-16.321l0.245-0.252c2.859-0.029,4.864-0.11,6.999-0.147
		L189.407,12.85z"/>
	<path fill="#9D9FA2" d="M236.857,51.339l0.496,1.129l-7.142-0.004c-2.248-0.001-2.38-0.203-2.945-1.734
		c-1.129-3.076-2.188-5.822-3.381-8.826c-1.311-3.304-2.167-5.356-3.549-8.645l-0.303-0.778c2.978,0.492,5.912,0.749,8.729,0.47
		L236.857,51.339z"/>
	<path fill="#9D9FA2" d="M216.693,24.659c-0.928-2.143-1.853-4.26-2.775-6.359c-0.868-1.973-1.738-3.943-2.612-5.915
		c-0.753,1.713-1.402,3.182-2.048,4.652c-1.427,3.23-3.093,6.873-4.43,10.139C208.361,25.319,212.554,24.637,216.693,24.659
		 M214.628,0.742l10.679,24.308c2.323,0.014,6.434,0.02,8.888-1.655l0.57,0.446c-1.013,6.568-6.366,6.872-12.184,6.492
		c-4.831-0.318-10.326-0.652-15.13,0.199c-3.709,0.657-5.231,2.582-6.579,5.74c-0.929,2.161-1.983,5.308-2.768,7.409
		c-0.91,2.423-1.788,4.891-2.631,7.407c-0.359,1.063-0.625,1.359-2.198,1.417c-1.294,0.048-3.57-0.063-4.879-0.04
		c-0.186,0.004-0.352,0.009-0.492,0.022l0.56-1.161l23.094-50.597l0.203-0.439h0.476h1.703h0.488L214.628,0.742z"/>
	<path fill="#9D9FA2" d="M12.417,32.642c1.89-0.058,3.16-0.208,5.209-0.538l-7.442,19.465c-0.35,0.916-0.536,0.944-1.831,0.927
		c-1.458-0.018-3.232,0.027-5.029,0.002C6.314,46.011,9.493,39.161,12.417,32.642"/>
	<path fill="#9D9FA2" d="M35.198,34.608c-1.005-2.351-3.291-3.647-5.707-4.076c-3.994-0.706-8.646-0.662-12.969-0.336
		c-3.514,0.267-7.037,0.428-9.066-0.265c-3.166-1.083-4.11-2.723-4.854-6.082l0.586-0.433c1.34,0.735,2.321,1.338,5.314,1.515
		c2.304,0.132,4.737,0.119,7.318-0.012c1.78-4.002,3.56-8.046,5.334-12.122c1.775-4.08,3.545-8.18,5.304-12.302l0.195-0.459h0.494
		h1.373h0.506l0.188,0.477l21.133,50.63l0.511,1.216c-1.86-0.088-5.759,0.004-7.052,0.021c-1.63,0.02-2.007-0.47-2.526-1.918
		C39.547,45.634,37.217,39.326,35.198,34.608 M31.863,26.72c-1.929-4.709-3.886-9.408-5.886-14.087l-5.17,11.993
		C24.427,24.78,28.31,25.173,31.863,26.72z"/>
	<path fill="#9D9FA2" d="M117.454,12.305v40.106c-2.449-0.075-4.442-0.099-6.657-0.004l0.022-19.736l-1.423,0.052
		c-2.054,0.078-5.577,5.308-8.488,10.15c-2.566,4.273-4.406,8.145-7.908,9.338c-1.487,0.505-3.685,0.333-6.865,0.093
		c4.524-3.845,9.159-13.938,13.265-17.707c1.154-1.06,2.552-1.734,4.036-2.143c-0.676-0.06-3.799-0.144-4.414-0.252
		c-5.954-1.042-8.891-4.373-8.974-10.317c-0.101-7.213,6.164-10.333,13.266-10.333h13.391h0.75V12.305z M110.797,29.534V14.995
		c-2.896-0.04-5.825-0.239-8.703,0.238c-3.858,0.64-5.331,3.667-5.331,7.318C97.006,30.39,105.441,29.565,110.797,29.534z"/>
	<path fill="#FFFFFF" d="M66.771,19.947c-4.453,9.95-9.157,20.171-13.055,30.26c-1.177,3.048-1.926,2.063-6.681,2.092
		c6.78-15.084,12.916-27.415,18.737-40.699h0.528h3.423h0.499l17.506,40.917c-5.718-0.181-7.532,0.534-8.525-1.88l-1.767-4.301
		C73.885,37.537,70.335,28.74,66.771,19.947"/>
	<path fill="#FFFFFF" d="M154.081,49.476c-3.997,2.649-8.933,3.611-13.672,3.611c-12.439,0-21.416-8.446-21.416-21.309
		c0-5.93,2.067-11.524,6.59-15.486c4.433-3.884,10.48-5.535,16.284-5.535c4.468,0,8.833,0.88,12.918,2.709l0.657,0.292
		c-0.71,1.772-1.435,4.648-1.802,6.521c-2.459-3.317-7.189-5.926-11.999-5.86c-4.499,0.065-8.489,1.525-11.389,5.083
		c-2.804,3.441-3.996,8.133-3.996,12.504h-0.002c0,9.021,5.428,17.338,14.957,17.338c5.333,0,11.025-3.105,13.832-5.787
		C154.857,45.464,154.244,47.57,154.081,49.476"/>
	<path fill="#FFFFFF" d="M188.333,12.896c-5.966,5.621-11.949,11.204-17.804,16.943c6.31,6.976,12.684,13.899,18.651,21.178
		l0.172,0.209v0.541l0.076,0.772c-1.266,0.013-3.852,0.057-4.91,0.011c-2.515-0.104-3.122-0.7-5.231-3.348
		c-0.685-0.856-1.298-1.632-1.883-2.297L164.919,32.65v19.801c-2.46-0.083-4.486-0.097-6.685,0V11.539
		c2.323,0.01,4.363,0.004,6.688,0.004v17.762c0.088-0.044,0.181-0.095,0.277-0.155c0.182-0.137,0.353-0.273,0.522-0.418
		c0.223-0.188,0.459-0.382,0.664-0.587c5.725-5.27,10.902-11.092,16.265-16.322l0.247-0.248c2.861-0.031,4.864-0.113,7.001-0.15
		L188.333,12.896z"/>
	<path fill="#FFFFFF" d="M235.91,51.383l0.497,1.129l-7.27-0.001c-2.246-0.002-2.382-0.206-2.943-1.735
		c-1.134-3.076-2.189-5.819-3.383-8.825c-1.313-3.307-2.166-5.359-3.549-8.645l-0.303-0.779c2.979,0.49,6.04,0.746,8.858,0.47
		L235.91,51.383z"/>
	<path fill="#FFFFFF" d="M215.618,24.705c-0.927-2.145-1.851-4.259-2.774-6.356c-0.866-1.973-1.74-3.946-2.612-5.919
		c-0.753,1.714-1.402,3.186-2.049,4.654c-1.424,3.229-3.092,6.875-4.43,10.142C207.289,25.363,211.481,24.683,215.618,24.705
		 M213.553,0.788l10.681,24.307c2.323,0.016,6.431,0.021,8.886-1.655l0.57,0.444c-1.01,6.571-6.367,6.872-12.184,6.493
		c-4.833-0.315-10.326-0.648-15.126,0.2c-3.713,0.659-5.234,2.583-6.586,5.741c-0.923,2.163-1.978,5.31-2.763,7.406
		c-0.909,2.423-1.788,4.891-2.634,7.409c-0.355,1.067-0.624,1.36-2.195,1.417c-1.293,0.049-3.57-0.064-4.878-0.04
		c-0.187,0.001-0.352,0.011-0.493,0.02l0.56-1.158l23.096-50.595l0.199-0.441h0.479h1.704h0.485L213.553,0.788z"/>
	<path fill="#FFFFFF" d="M11.343,32.688c1.89-0.061,3.159-0.211,5.21-0.539L9.109,51.612c-0.35,0.918-0.536,0.947-1.83,0.931
		c-1.459-0.019-3.232,0.027-5.031,0C5.241,46.058,8.419,39.205,11.343,32.688"/>
	<path fill="#FFFFFF" d="M34.123,34.654c-1.004-2.35-3.29-3.647-5.706-4.077c-3.993-0.707-8.644-0.661-12.968-0.334
		c-3.514,0.267-7.038,0.431-9.066-0.265c-3.167-1.083-4.11-2.725-4.855-6.084l0.586-0.43c1.341,0.735,2.322,1.337,5.314,1.512
		c2.304,0.137,4.738,0.119,7.318-0.009c1.779-4.004,3.559-8.047,5.334-12.121c1.775-4.08,3.545-8.184,5.304-12.307l0.196-0.457
		h0.494h1.372h0.507l0.188,0.474l21.132,50.632l0.512,1.214c-1.86-0.088-5.76,0.005-7.053,0.022
		c-1.629,0.021-2.007-0.47-2.526-1.917C38.474,45.68,36.141,39.372,34.123,34.654 M30.789,26.766
		c-1.928-4.709-3.885-9.408-5.886-14.087l-5.17,11.994C23.354,24.827,27.234,25.219,30.789,26.766z"/>
	<path fill="#FFFFFF" d="M116.38,12.351v40.104c-2.449-0.072-4.442-0.097-6.658-0.002l0.022-19.737l-1.422,0.053
		c-2.053,0.075-5.577,5.306-8.486,10.148c-2.567,4.275-4.408,8.146-7.911,9.34c-1.488,0.506-3.685,0.33-6.864,0.092
		c4.524-3.844,9.158-13.938,13.266-17.705c1.154-1.06,2.551-1.738,4.037-2.145c-0.677-0.059-3.802-0.144-4.416-0.252
		c-5.954-1.042-8.891-4.37-8.974-10.317C88.873,14.721,95.139,11.6,102.24,11.6h13.39h0.75V12.351z M109.722,29.58V15.043
		c-2.896-0.044-5.824-0.238-8.701,0.239c-3.859,0.637-5.333,3.666-5.333,7.315C95.933,30.439,104.367,29.611,109.722,29.58z"/>
	<path fill="#004C91" d="M65.244,19.866c-4.453,9.949-9.157,20.168-13.055,30.259c-1.177,3.048-1.927,2.066-6.681,2.093
		c6.779-15.083,12.915-27.416,18.738-40.701h0.526h3.424h0.498l17.507,40.919c-5.719-0.181-7.532,0.533-8.525-1.881l-1.769-4.301
		C72.358,37.457,68.808,28.656,65.244,19.866"/>
	<path fill="#004C91" d="M152.554,49.396c-3.996,2.649-8.932,3.611-13.672,3.611c-12.438,0-21.414-8.448-21.414-21.311
		c0-5.928,2.066-11.525,6.587-15.484c4.436-3.884,10.481-5.537,16.286-5.537c4.469,0,8.832,0.88,12.917,2.708l0.658,0.296
		c-0.711,1.77-1.434,4.648-1.802,6.52c-2.459-3.317-7.188-5.926-11.998-5.858c-4.502,0.062-8.492,1.523-11.392,5.081
		c-2.802,3.443-3.994,8.132-3.994,12.504h-0.003c0,9.02,5.429,17.337,14.957,17.337c5.333,0,11.024-3.103,13.833-5.787
		C153.329,45.385,152.718,47.49,152.554,49.396"/>
	<path fill="#004C91" d="M186.808,12.814c-5.966,5.62-11.953,11.207-17.803,16.945c6.31,6.973,12.684,13.897,18.648,21.175
		l0.174,0.209v0.543l0.077,0.771c-1.268,0.013-3.854,0.054-4.915,0.01c-2.51-0.103-3.12-0.699-5.229-3.346
		c-0.685-0.856-1.297-1.632-1.882-2.299L163.393,32.57v19.799c-2.46-0.082-4.485-0.094-6.685,0.002V11.459
		c2.323,0.008,4.361,0.004,6.686,0.004v17.762c0.089-0.044,0.183-0.097,0.279-0.155c0.181-0.137,0.352-0.275,0.521-0.418
		c0.224-0.19,0.461-0.384,0.665-0.589c5.724-5.271,10.903-11.092,16.268-16.32l0.247-0.251c2.857-0.029,4.861-0.11,6.997-0.148
		L186.808,12.814z"/>
	<path fill="#004C91" d="M234.259,51.303l0.497,1.13l-7.144-0.004c-2.249,0-2.383-0.203-2.944-1.734
		c-1.134-3.077-2.189-5.822-3.383-8.827c-1.311-3.303-2.167-5.355-3.55-8.645l-0.304-0.778c2.98,0.492,5.916,0.749,8.731,0.471
		L234.259,51.303z"/>
	<path fill="#004C91" d="M214.094,24.624c-0.93-2.143-1.855-4.26-2.777-6.358c-0.866-1.973-1.738-3.942-2.612-5.915
		c-0.752,1.713-1.402,3.185-2.049,4.652c-1.423,3.23-3.089,6.873-4.427,10.14C205.763,25.283,209.956,24.603,214.094,24.624
		 M212.024,0.706l10.684,24.308c2.321,0.016,6.43,0.02,8.884-1.655l0.569,0.446c-1.011,6.568-6.365,6.873-12.18,6.493
		c-4.833-0.318-10.329-0.651-15.129,0.199c-3.713,0.657-5.236,2.582-6.584,5.743c-0.924,2.158-1.979,5.305-2.766,7.406
		c-0.907,2.423-1.787,4.891-2.633,7.407c-0.354,1.064-0.623,1.359-2.196,1.416c-1.293,0.049-3.57-0.063-4.877-0.039
		c-0.186,0.004-0.353,0.008-0.495,0.021l0.562-1.161l23.094-50.597l0.201-0.436h0.479h1.703h0.487L212.024,0.706z"/>
	<path fill="#004C91" d="M9.815,32.606c1.891-0.057,3.161-0.208,5.21-0.538L7.583,51.533c-0.351,0.916-0.537,0.945-1.831,0.927
		c-1.458-0.018-3.232,0.027-5.03,0.003C3.715,45.976,6.893,39.125,9.815,32.606"/>
	<path fill="#004C91" d="M32.598,34.573c-1.006-2.351-3.292-3.648-5.707-4.076c-3.994-0.706-8.646-0.662-12.969-0.336
		c-3.513,0.268-7.038,0.431-9.065-0.264C1.689,28.813,0.745,27.173,0,23.813l0.588-0.433c1.34,0.735,2.32,1.337,5.313,1.514
		c2.304,0.134,4.737,0.119,7.317-0.011c1.781-4.003,3.56-8.044,5.334-12.123c1.776-4.077,3.546-8.179,5.305-12.302L24.053,0h0.494
		h1.373h0.505l0.19,0.477L47.747,51.11l0.511,1.212c-1.86-0.087-5.759,0.004-7.053,0.021c-1.63,0.019-2.007-0.47-2.525-1.918
		C36.945,45.599,34.615,39.292,32.598,34.573 M29.263,26.685c-1.929-4.71-3.886-9.408-5.887-14.088L18.207,24.59
		C21.826,24.745,25.708,25.138,29.263,26.685z"/>
	<path fill="#004C91" d="M114.853,12.269v40.106c-2.448-0.075-4.442-0.099-6.657-0.004l0.023-19.736l-1.423,0.053
		c-2.053,0.076-5.578,5.307-8.487,10.149c-2.568,4.273-4.407,8.144-7.91,9.338c-1.487,0.505-3.685,0.333-6.864,0.093
		c4.524-3.845,9.158-13.938,13.265-17.707c1.154-1.059,2.552-1.734,4.036-2.142c-0.676-0.06-3.799-0.144-4.414-0.252
		c-5.955-1.042-8.89-4.372-8.974-10.317c-0.102-7.213,6.164-10.333,13.266-10.333h13.39h0.75V12.269z M108.195,29.499v-14.54
		c-2.896-0.04-5.823-0.239-8.702,0.24c-3.857,0.638-5.332,3.666-5.332,7.316C94.405,30.358,102.841,29.529,108.195,29.499z"/>
	<path fill="#004C91" d="M222.065,2.684h0.536l-0.133-2.427h-0.717l-0.262,0.805c-0.022,0.09-0.049,0.185-0.079,0.285
		c-0.023,0.097-0.054,0.196-0.076,0.295c-0.027,0.101-0.051,0.198-0.074,0.291h-0.01c-0.02-0.095-0.04-0.191-0.063-0.289
		c-0.02-0.099-0.045-0.196-0.067-0.293c-0.024-0.097-0.051-0.194-0.077-0.285l-0.237-0.809h-0.729l-0.156,2.427h0.51l0.043-0.923
		c0.004-0.102,0.009-0.209,0.013-0.322c0.007-0.115,0.009-0.23,0.015-0.345c0.003-0.115,0.01-0.229,0.015-0.339h0.007
		c0.017,0.105,0.04,0.214,0.064,0.324c0.023,0.108,0.05,0.218,0.076,0.325c0.026,0.105,0.054,0.207,0.08,0.304l0.26,0.936h0.43
		l0.295-0.949c0.029-0.093,0.063-0.194,0.092-0.3c0.033-0.106,0.063-0.212,0.094-0.323c0.029-0.105,0.056-0.212,0.083-0.317h0.013
		c0,0.119,0.001,0.236,0.001,0.351c0.002,0.117,0.004,0.227,0.009,0.338c0.003,0.11,0.007,0.211,0.009,0.309L222.065,2.684z
		 M218.483,2.684h0.551V0.716h0.663V0.257h-1.868v0.459h0.654V2.684z"/>
</g>
</svg>
